<svg width="32" height="32" viewBox="0 0 32 32" fill="none" xmlns="http://www.w3.org/2000/svg">
<g clip-path="url(#clip0_100_18)">
<path d="M0.392131 19.6873C0.320931 19.3838 0.682525 19.1926 0.902973 19.413L12.5869 31.097C12.8074 31.3175 12.6162 31.6791 12.3127 31.6079C6.41648 30.2247 1.77529 25.5835 0.392131 19.6873ZM0.000605231 15.0045C-0.00504077 15.0952 0.0290443 15.1837 0.0932682 15.2479L16.7521 31.9067C16.8163 31.9709 16.9048 32.0051 16.9955 31.9994C17.7536 31.9521 18.4975 31.8522 19.2235 31.7031C19.4681 31.6529 19.5531 31.3523 19.3765 31.1757L0.824304 12.6235C0.647709 12.4469 0.34713 12.5319 0.296888 12.7765C0.147796 13.5025 0.0478259 14.2464 0.000605231 15.0045ZM1.3475 9.50572C1.29422 9.62534 1.32136 9.76512 1.41395 9.85772L22.1423 30.586C22.2349 30.6786 22.3747 30.7058 22.4943 30.6525C23.0658 30.3979 23.6197 30.1108 24.1536 29.7936C24.3303 29.6887 24.3576 29.4459 24.2123 29.3006L2.69941 7.78774C2.5541 7.64243 2.31134 7.66969 2.20637 7.84636C1.88915 8.38025 1.60208 8.93417 1.3475 9.50572ZM4.05078 5.78368C3.93235 5.66525 3.92502 5.47529 4.03661 5.35037C6.96944 2.06698 11.2356 0 15.9846 0C24.8297 0 32 7.17033 32 16.0154C32 20.7643 29.933 25.0305 26.6496 27.9634C26.5247 28.075 26.3348 28.0676 26.2163 27.9492L4.05078 5.78368Z" fill="#5E6AD2"/>
</g>
<defs>
<clipPath id="clip0_100_18">
<rect width="32" height="32" fill="white"/>
</clipPath>
</defs>
</svg>
